<?xml version="1.0" encoding="UTF-8" standalone="no"?>
<!-- Created with Inkscape (http://www.inkscape.org/) -->

<svg
   xmlns:dc="http://purl.org/dc/elements/1.1/"
   xmlns:cc="http://creativecommons.org/ns#"
   xmlns:rdf="http://www.w3.org/1999/02/22-rdf-syntax-ns#"
   xmlns:svg="http://www.w3.org/2000/svg"
   xmlns="http://www.w3.org/2000/svg"
   xmlns:sodipodi="http://sodipodi.sourceforge.net/DTD/sodipodi-0.dtd"
   xmlns:inkscape="http://www.inkscape.org/namespaces/inkscape"
   width="210mm"
   height="210mm"
   viewBox="0 0 210 210"
   version="1.1"
   id="svg8"
   sodipodi:docname="lockDrawing.svg"
   inkscape:version="0.92.4 (5da689c313, 2019-01-14)">
  <defs
     id="defs2" />
  <sodipodi:namedview
     id="base"
     pagecolor="#ffffff"
     bordercolor="#666666"
     borderopacity="1.0"
     inkscape:pageopacity="0.0"
     inkscape:pageshadow="2"
     inkscape:zoom="0.49497475"
     inkscape:cx="-107.52531"
     inkscape:cy="384.67241"
     inkscape:document-units="mm"
     inkscape:current-layer="layer1"
     showgrid="false"
     inkscape:window-width="1408"
     inkscape:window-height="1168"
     inkscape:window-x="95"
     inkscape:window-y="848"
     inkscape:window-maximized="0" />
  <metadata
     id="metadata5">
    <rdf:RDF>
      <cc:Work
         rdf:about="">
        <dc:format>image/svg+xml</dc:format>
        <dc:type
           rdf:resource="http://purl.org/dc/dcmitype/StillImage" />
        <dc:title></dc:title>
      </cc:Work>
    </rdf:RDF>
  </metadata>
  <g
     inkscape:label="Layer 1"
     inkscape:groupmode="layer"
     id="layer1"
     transform="translate(0,-87)">
    <g
       id="g3805"
       transform="matrix(1.1786025,0,0,1.1786025,-180.52717,21.850948)"
       style="fill:#b3b3b3" />
    <g
       id="g3847"
       style="fill:#000000"
       transform="matrix(1.1786025,0,0,1.1786025,-9.4880068,20.924565)">
      <path
         inkscape:connector-curvature="0"
         style="fill:#000000;stroke-width:0.31459653"
         d="m 144.84964,65.327763 a 47.637263,45.859753 30 0 0 -64.184952,15.896843 47.637263,45.859753 30 0 0 6.51629,53.974454 18.762676,40.004003 30 0 1 9.089127,-24.88674 18.762676,40.004003 30 0 1 36.250955,-25.263282 18.762676,40.004003 30 0 1 -3.75317,44.025892 18.762676,40.004003 30 0 1 -17.49919,20.69699 47.637263,45.859753 30 0 0 51.90635,-20.90993 47.637263,45.859753 30 0 0 -18.32541,-63.534227 z"
         id="ellipse3749" />
      <rect
         rx="19.092974"
         y="53.473484"
         x="100.51616"
         height="97.763039"
         width="116.24915"
         id="rect3753"
         style="fill:#000000;stroke-width:0.24885137"
         transform="rotate(30)" />
    </g>
    <ellipse
       transform="rotate(30)"
       style="fill:#b3b3b3;stroke-width:0.29329687"
       id="ellipse3755"
       cx="189.42929"
       cy="132.60718"
       rx="15.083838"
       ry="15.712332" />
    <ellipse
       transform="rotate(30)"
       ry="13.826853"
       rx="3.9804571"
       cy="146.64354"
       cx="188.80081"
       id="ellipse3757"
       style="fill:#b3b3b3;stroke-width:0.14133811" />
    <g
       id="g3851"
       style="fill:#b3b3b3"
       transform="matrix(1.1786025,0,0,1.1786025,-9.4880068,20.924565)">
      <path
         id="path3715"
         d="m 141.47736,71.609686 a 43.572873,41.947019 30 0 0 -58.708492,14.540733 43.572873,41.947019 30 0 0 2.22957,44.634561 25.200727,39.833409 30 0 1 7.692952,-26.70257 25.200727,39.833409 30 0 1 41.74128,-21.896313 25.200727,39.833409 30 0 1 1.9075,47.096953 25.200727,39.833409 30 0 1 -20.28543,20.57397 43.572873,41.947019 30 0 0 42.18461,-20.1337 43.572873,41.947019 30 0 0 -16.76199,-58.113634 z"
         clip-path="none"
         style="fill:#b3b3b3;stroke-width:0.28775528"
         inkscape:connector-curvature="0" />
      <rect
         transform="rotate(30)"
         rx="17.46397"
         y="54.685375"
         x="105.65031"
         height="89.421936"
         width="106.33082"
         id="rect3731"
         style="fill:#b3b3b3;stroke-width:0.22761947" />
    </g>
    <g
       id="g3855"
       style="fill:#000000"
       transform="matrix(1.1786025,0,0,1.1786025,-9.4880068,20.924565)">
      <ellipse
         transform="rotate(30)"
         ry="12.193901"
         rx="11.706144"
         cy="90.941902"
         cx="158.9783"
         id="path3733"
         style="fill:#000000;stroke-width:0.22761947" />
      <ellipse
         transform="rotate(30)"
         style="fill:#000000;stroke-width:0.10968855"
         id="ellipse3735"
         cx="158.49055"
         cy="101.83512"
         rx="3.0891213"
         ry="10.730633" />
    </g>
  </g>
</svg>
